<svg id="Capa_1" enable-background="new 0 0 512 512" viewBox="0 0 512 512" xmlns="http://www.w3.org/2000/svg" xmlns:xlink="http://www.w3.org/1999/xlink"><linearGradient id="SVGID_1_" gradientUnits="userSpaceOnUse" x1="68.3" x2="97.335" y1="394.67" y2="423.705"><stop offset="0" stop-color="#5a5a5a"/><stop offset="1" stop-color="#444"/></linearGradient><linearGradient id="lg1"><stop offset="0" stop-color="#433f43" stop-opacity="0"/><stop offset="1" stop-color="#1a1a1a"/></linearGradient><linearGradient id="SVGID_00000135668941700909376150000010735438207001961602_" gradientUnits="userSpaceOnUse" x1="137.792" x2="163.618" xlink:href="#lg1" y1="374.208" y2="348.382"/><linearGradient id="SVGID_00000003803356068358702630000012735855994131793845_" gradientUnits="userSpaceOnUse" x1="91.587" x2="124.885" xlink:href="#lg1" y1="417.957" y2="451.255"/><linearGradient id="lg2"><stop offset="0" stop-color="#b3dafe"/><stop offset="1" stop-color="#0182fc"/></linearGradient><linearGradient id="SVGID_00000023275406633523434180000009807673047516758186_" gradientUnits="userSpaceOnUse" x1="212.273" x2="417.482" xlink:href="#lg2" y1="72.215" y2="277.424"/><linearGradient id="SVGID_00000183959706062971871930000016228272031429233060_" gradientUnits="userSpaceOnUse" x1="430.959" x2="205.125" xlink:href="#lg2" y1="290.901" y2="65.066"/><linearGradient id="lg3"><stop offset="0" stop-color="#314dc9" stop-opacity="0"/><stop offset=".2761" stop-color="#304bc4" stop-opacity=".276"/><stop offset=".5628" stop-color="#2b45b8" stop-opacity=".563"/><stop offset=".8535" stop-color="#243ba3" stop-opacity=".854"/><stop offset="1" stop-color="#1f3596"/></linearGradient><linearGradient id="SVGID_00000155113109251303080620000015589950476843591330_" gradientUnits="userSpaceOnUse" x1="326.029" x2="326.029" xlink:href="#lg3" y1="188.324" y2="407.094"/><linearGradient id="SVGID_00000151521922945020391330000004953461945613032068_" gradientTransform="matrix(.707 -.707 .707 .707 2092.87 -601.189)" gradientUnits="userSpaceOnUse" x1="-1805.951" x2="-1805.951" xlink:href="#lg3" y1="-690.386" y2="-460.106"/><linearGradient id="SVGID_00000112609095576348224740000000703705249383312574_" gradientTransform="matrix(-1 0 0 -1 1576 -2680)" gradientUnits="userSpaceOnUse" x1="1172.446" x2="1312.296" y1="-2943.495" y2="-2803.646"><stop offset="0" stop-color="#f5fbff"/><stop offset="1" stop-color="#dbd5ef"/></linearGradient><linearGradient id="lg4"><stop offset="0" stop-color="#dbd5ef" stop-opacity="0"/><stop offset=".2853" stop-color="#d9d2ee" stop-opacity=".285"/><stop offset=".4739" stop-color="#d4c9e9" stop-opacity=".474"/><stop offset=".6346" stop-color="#cbbae2" stop-opacity=".635"/><stop offset=".7795" stop-color="#bfa5d7" stop-opacity=".78"/><stop offset=".9126" stop-color="#af8aca" stop-opacity=".913"/><stop offset="1" stop-color="#a274bf"/></linearGradient><linearGradient id="SVGID_00000015356014571476617210000017200428756243818906_" gradientUnits="userSpaceOnUse" x1="311.529" x2="280.949" xlink:href="#lg4" y1="143.53" y2="54.053"/><linearGradient id="SVGID_00000017512820420927085050000002042267645419463595_" gradientUnits="userSpaceOnUse" x1="263.787" x2="207.156" xlink:href="#lg4" y1="156.089" y2="128.906"/><linearGradient id="SVGID_00000045592005355155186720000004780841932070494118_" gradientUnits="userSpaceOnUse" x1="201.01" x2="364.727" y1="60.951" y2="224.669"><stop offset="0" stop-color="#fff"/><stop offset="1" stop-color="#eaf6ff" stop-opacity="0"/></linearGradient><linearGradient id="lg5"><stop offset="0" stop-color="#fef0ae"/><stop offset="1" stop-color="#fac600"/></linearGradient><linearGradient id="SVGID_00000093170285185317912050000005853244350086482364_" gradientTransform="matrix(.707 .707 -.707 .707 7.386 -1904.08)" gradientUnits="userSpaceOnUse" x1="1703.205" x2="1703.205" xlink:href="#lg5" y1="1450.949" y2="1479.481"/><linearGradient id="lg6"><stop offset="0" stop-color="#fe9738" stop-opacity="0"/><stop offset="1" stop-color="#fe9738"/></linearGradient><linearGradient id="SVGID_00000081631712763744903730000013919831000036676262_" gradientTransform="matrix(.707 .707 -.707 .707 7.386 -1904.08)" gradientUnits="userSpaceOnUse" x1="1727.899" x2="1745.3" xlink:href="#lg6" y1="1470.672" y2="1479.462"/><linearGradient id="SVGID_00000018199808476016677330000016506044914289665450_" gradientTransform="matrix(.707 .707 -.707 .707 7.386 -1904.08)" gradientUnits="userSpaceOnUse" x1="1703.205" x2="1703.205" xlink:href="#lg6" y1="1467.114" y2="1484.965"/><linearGradient id="SVGID_00000097478318184083981050000009157058696824239778_" gradientTransform="matrix(.707 .707 -.707 .707 7.386 -1904.08)" gradientUnits="userSpaceOnUse" x1="1703.205" x2="1703.205" xlink:href="#lg5" y1="1423.613" y2="1447.113"/><linearGradient id="SVGID_00000096754995954962499040000006049205340297156259_" gradientTransform="matrix(.707 .707 -.707 .707 7.386 -1904.08)" gradientUnits="userSpaceOnUse" x1="1723.543" x2="1737.875" xlink:href="#lg6" y1="1439.857" y2="1447.097"/><linearGradient id="SVGID_00000036970636426063266590000011533680689237681591_" gradientTransform="matrix(.707 .707 -.707 .707 7.386 -1904.08)" gradientUnits="userSpaceOnUse" x1="1703.205" x2="1703.205" xlink:href="#lg6" y1="1436.927" y2="1451.629"/><linearGradient id="SVGID_00000183236703905654315800000008939615080654709923_" gradientUnits="userSpaceOnUse" x1=".8" x2="58.305" xlink:href="#lg1" y1="327.995" y2="516.668"/><g><g><path d="m13.828 498.69c-.172-.173-.345-.345-.517-.518-15.62-15.62-17.705-40.144-5.126-58.303 35.836-51.736 82.776-94.609 138.003-125.805l51.749 51.749c-31.197 55.227-74.07 102.167-125.806 138.003-18.159 12.579-42.684 10.494-58.303-5.126z" fill="url(#SVGID_1_)"/></g><path d="m82.181 358.518 71.301 71.301c16.677-19.79 31.564-41.188 44.453-64.005l-51.749-51.749c-22.817 12.888-44.215 27.776-64.005 44.453z" fill="url(#SVGID_00000135668941700909376150000010735438207001961602_)"/><path d="m.91 475.033c1.717 8.525 5.872 16.611 12.4 23.139.172.173.345.345.517.518 15.62 15.62 40.144 17.705 58.303 5.126 51.736-35.836 94.609-82.776 125.805-138.003l-43.903-43.903z" fill="url(#SVGID_00000003803356068358702630000012735855994131793845_)"/><g><g><g><g><circle cx="326.029" cy="185.971" fill="url(#SVGID_00000023275406633523434180000009807673047516758186_)" r="185.971"/><circle cx="326.029" cy="185.971" fill="url(#SVGID_00000183959706062971871930000016228272031429233060_)" r="149.922"/><path d="m140.058 185.971c0 102.708 83.262 185.971 185.971 185.971s185.971-83.263 185.971-185.971c0-22.244-3.919-43.569-11.081-63.341h-349.78c-7.162 19.771-11.081 41.096-11.081 63.341z" fill="url(#SVGID_00000155113109251303080620000015589950476843591330_)"/><path d="m194.528 317.472c72.626 72.626 190.376 72.626 263.002 0s72.626-190.377 0-263.002c-15.729-15.729-33.579-28.037-52.624-36.953l-247.332 247.331c8.917 19.045 21.225 36.895 36.954 52.624z" fill="url(#SVGID_00000151521922945020391330000004953461945613032068_)"/></g><g><circle cx="326.029" cy="185.971" fill="url(#SVGID_00000112609095576348224740000000703705249383312574_)" r="126.739"/><path d="m452.768 185.971c0-69.996-56.743-126.739-126.739-126.739s-126.739 56.743-126.739 126.739c0 15.159 2.671 29.693 7.552 43.167h238.374c4.881-13.475 7.552-28.008 7.552-43.167z" fill="url(#SVGID_00000015356014571476617210000017200428756243818906_)"/><path d="m415.647 96.353c-49.494-49.494-129.741-49.495-179.236 0-49.494 49.494-49.494 129.741 0 179.236 10.719 10.719 22.884 19.107 35.863 25.184l168.556-168.556c-6.076-12.98-14.464-25.145-25.183-35.864z" fill="url(#SVGID_00000017512820420927085050000002042267645419463595_)"/></g></g></g><circle cx="326.029" cy="185.971" fill="url(#SVGID_00000045592005355155186720000004780841932070494118_)" r="113.296"/></g><g><g><path d="m187.859 374.815-50.674-50.674c-3.824-3.824-1.799-12.051 4.524-18.374 5.413-5.413 12.38-7.794 16.7-5.706l4.922 2.378c20.554 9.931 36.299 25.676 46.23 46.23l2.378 4.922c2.087 4.32-.293 11.286-5.706 16.7-6.324 6.323-14.55 8.349-18.374 4.524z" fill="url(#SVGID_00000093170285185317912050000005853244350086482364_)"/><path d="m187.859 374.815c3.824 3.824 12.051 1.799 18.374-4.524 5.413-5.413 7.794-12.379 5.706-16.699l-2.378-4.922c-4.965-10.277-11.384-19.352-19.131-27.099l-27.908 27.908z" fill="url(#SVGID_00000081631712763744903730000013919831000036676262_)"/><path d="m141.709 305.767c-6.323 6.323-8.349 14.549-4.524 18.374l50.674 50.674c3.824 3.824 12.051 1.799 18.374-4.524 3.291-3.291 5.451-7.153 6.178-10.648l-60.054-60.054c-3.495.727-7.357 2.888-10.648 6.178z" fill="url(#SVGID_00000018199808476016677330000016506044914289665450_)"/></g><g><path d="m206.818 346.918-41.736-41.736c-3.15-3.15-1.481-9.925 3.726-15.133 4.458-4.458 10.196-6.419 13.754-4.7l4.054 1.959c16.929 8.179 29.897 21.147 38.076 38.076l1.959 4.054c1.719 3.558-.242 9.296-4.7 13.754-5.208 5.208-11.984 6.876-15.133 3.726z" fill="url(#SVGID_00000097478318184083981050000009157058696824239778_)"/><path d="m206.818 346.918c3.15 3.15 9.925 1.481 15.133-3.726 4.458-4.458 6.419-10.196 4.7-13.754l-1.959-4.054c-4.09-8.465-9.376-15.939-15.757-22.319l-22.985 22.985z" fill="url(#SVGID_00000096754995954962499040000006049205340297156259_)"/><path d="m168.808 290.049c-5.208 5.208-6.876 11.983-3.726 15.133l41.736 41.736c3.15 3.15 9.925 1.481 15.133-3.726 2.71-2.71 4.49-5.891 5.089-8.77l-49.461-49.461c-2.88.599-6.061 2.378-8.771 5.088z" fill="url(#SVGID_00000036970636426063266590000011533680689237681591_)"/></g></g><path d="m18.44 425.706c-3.512 4.644-6.933 9.365-10.256 14.163-2.203 3.181-3.947 6.56-5.256 10.049l59.154 59.154c3.489-1.31 6.868-3.053 10.049-5.256 4.798-3.324 9.519-6.744 14.163-10.256z" fill="url(#SVGID_00000183236703905654315800000008939615080654709923_)"/></g><g/><g/><g/><g/><g/><g/><g/><g/><g/><g/><g/><g/><g/><g/><g/></svg>